<?xml version="1.0" encoding="UTF-8"?>
<svg width="24px" height="28px" viewBox="0 0 24 28" version="1.1" xmlns="http://www.w3.org/2000/svg" xmlns:xlink="http://www.w3.org/1999/xlink">
    <title>编组</title>
    <g id="页面-3" stroke="none" stroke-width="1" fill="none" fill-rule="evenodd">
        <g id="pc下载页" transform="translate(-329.000000, -607.000000)" fill="#FFFFFF" fill-rule="nonzero">
            <g id="编组-2" transform="translate(329.000000, 605.000000)">
                <g id="编组" transform="translate(0.000000, 2.000000)">
                    <path d="M15.5831458,2.46085637 L17.0423119,0.338595463 C17.1047871,0.248226398 17.0818443,0.122909928 16.9914847,0.0604281941 L16.9551291,0.0353649139 C16.8647695,-0.0274698221 16.7401721,-0.00417155187 16.6776969,0.0861975128 L15.1765277,2.26952811 C14.195985,1.84309911 13.1021399,1.60482131 11.9479373,1.60482131 C10.8526803,1.60482131 9.81107434,1.81944783 8.87006395,2.20598737 L7.43560553,0.11973291 C7.37348331,0.0293638454 7.24853295,0.00641857721 7.15817336,0.0689003112 L7.12181775,0.0939635914 C7.03145816,0.156445325 7.0085153,0.281761795 7.07063752,0.372483862 L8.45779835,2.38919652 C6.27681446,3.4344418 4.70964041,5.42750314 4.39055813,7.78098178 L19.5053165,7.78098178 C19.1936466,5.48010079 17.6885948,3.52339882 15.5831458,2.46085637 Z M8.76523276,5.50092804 C8.34943748,5.50092804 8.01200091,5.16239709 8.01200091,4.74514617 C8.01200091,4.32789528 8.34943748,3.98971729 8.76523276,3.98971729 C9.181381,3.98971729 9.5184646,4.32789525 9.5184646,4.74514617 C9.5184646,5.16239705 9.181381,5.50092804 8.76523276,5.50092804 Z M15.2668873,5.50092804 C14.851092,5.50092804 14.5136555,5.16239709 14.5136555,4.74514617 C14.5136555,4.32789528 14.851092,3.98971729 15.2668873,3.98971729 C15.6830355,3.98971729 16.0201191,4.32789525 16.0201191,4.74514617 C16.0201191,5.16239705 15.6830355,5.50092804 15.2668873,5.50092804 Z" id="形状"></path>
                    <path d="M3.33906907,10.8094043 L3.33906907,16.9996849 C3.33906907,18.0608154 2.66313701,18.9292056 1.83648799,18.9292056 L1.50258108,18.9292056 C0.676285029,18.9292056 0,18.0608154 0,16.9996849 L0,10.8094043 C0,9.74827388 0.676285029,8.88023667 1.50258108,8.88023667 L1.83648799,8.88023667 C2.66313701,8.88023667 3.33906907,9.74827384 3.33906907,10.8094043 Z" id="路径"></path>
                    <path d="M24,10.8461167 L24,17.0363974 C24,18.0978808 23.3240679,18.965918 22.4974189,18.965918 L22.163512,18.965918 C21.337216,18.965918 20.6609309,18.0978808 20.6609309,17.0363974 L20.6609309,10.8461167 C20.6609309,9.78498629 21.337216,8.91694909 22.163512,8.91694909 L22.4974189,8.91694909 C23.3240679,8.91694909 24,9.78498629 24,10.8461167 Z" id="路径"></path>
                    <path d="M19.6207368,8.78527855 L19.6207368,20.9995748 C19.6207368,21.8474908 18.9292742,22.5411439 18.0839179,22.5411439 L16.816413,22.5411439 L16.816413,26.0708324 C16.816413,27.1319628 16.1401279,28 15.3138319,28 L14.979925,28 C14.1536289,28 13.4773439,27.1319628 13.4773439,26.0708324 L13.4773439,22.5411439 L10.6536068,22.5411439 L10.6536068,26.0302369 C10.6536068,27.0913673 9.97767478,27.9597575 9.15102577,27.9597575 L8.81711885,27.9597575 C7.99082281,27.9597575 7.31453778,27.0913674 7.31453778,26.0302369 L7.31453778,22.5411439 L5.93267145,22.5411439 C5.08731519,22.5411439 4.39585257,21.8474908 4.39585257,20.9995748 L4.39585257,8.78527855 L19.6207368,8.78527855 Z" id="路径"></path>
                </g>
            </g>
        </g>
    </g>
</svg>