<?xml version="1.0" encoding="UTF-8"?>
<svg width="45px" height="45px" viewBox="0 0 45 45" version="1.1" xmlns="http://www.w3.org/2000/svg" xmlns:xlink="http://www.w3.org/1999/xlink">
    <title>免责声明</title>
    <g id="web" stroke="none" stroke-width="1" fill="none" fill-rule="evenodd">
        <g id="首页" transform="translate(-1115.000000, -1626.000000)">
            <g id="免责声明" transform="translate(1115.000000, 1626.000000)">
                <circle id="椭圆形备份-11" fill="#65688E" cx="22.5" cy="22.5" r="22.5"></circle>
                <g id="编组" transform="translate(14.000000, 12.000000)" fill="#BEBFD1" fill-rule="nonzero">
                    <path d="M14.7981913,6.25753006 C13.2299102,6.25753006 11.9545037,4.95290573 11.9545037,3.34929784 L11.9545037,0 L1.73070512,0 C0.774758279,0 0,0.793128896 0,1.7703747 L0,20.1438698 C0,21.1211156 0.774800211,21.9130435 1.73070512,21.9130435 L16.269819,21.9130435 C17.2252627,21.9130435 18,21.1211156 18,20.1438698 L18,6.25750862 L14.7981913,6.25750862 L14.7981913,6.25753006 Z M15.144823,17.9719765 L2.85454806,17.9719765 L2.85454806,16.7859719 L15.144823,16.7859719 L15.144823,17.9719765 Z M15.144823,14.1767018 L2.85454806,14.1767018 L2.85454806,12.9906973 L15.144823,12.9906973 L15.144823,14.1767018 Z M15.144823,10.3814272 L2.85454806,10.3814272 L2.85454806,9.19542258 L15.144823,9.19542258 L15.144823,10.3814272 Z" id="形状"></path>
                    <path d="M13.0674652,0 L13.0674652,3.34929784 C13.0674652,4.32654365 13.8422655,5.11847155 14.7981913,5.11847155 L18,5.11847155 L13.0674652,0 L13.0674652,0 Z" id="路径"></path>
                </g>
            </g>
        </g>
    </g>
</svg>