<?xml version="1.0" encoding="UTF-8"?>
<svg width="45px" height="45px" viewBox="0 0 45 45" version="1.1" xmlns="http://www.w3.org/2000/svg" xmlns:xlink="http://www.w3.org/1999/xlink">
    <title>全球赛事</title>
    <g id="web" stroke="none" stroke-width="1" fill="none" fill-rule="evenodd">
        <g id="首页" transform="translate(-591.000000, -1626.000000)">
            <g id="全球赛事" transform="translate(591.000000, 1626.000000)">
                <circle id="椭圆形" fill="#65688E" cx="22.5" cy="22.5" r="22.5"></circle>
                <g id="编组" transform="translate(12.000000, 9.000000)" fill="#BEBFD1" fill-rule="nonzero">
                    <path d="M7.84703508,16.6196833 C7.35809393,16.1126958 6.99138807,15.4789614 6.13574107,15.6057083 C4.42444706,15.7324552 2.83538833,15.6057083 1.12409432,15.6057083 C0.512917893,15.6057083 0.0239767476,15.7324552 0.0239767476,16.3661895 C0.0239767476,16.9999239 0.635153179,17.1266708 1.12409432,17.1266708 L7.48032922,17.1266708 C7.84703508,17.1266708 8.33597622,16.9999239 7.84703508,16.6196833 L7.84703508,16.6196833 Z M1.12409432,11.042821 C2.2242119,11.042821 3.20209419,10.9160741 4.30221177,11.042821 C5.52456463,11.1695679 6.50244693,10.7893273 7.35809393,9.52185858 L1.24632961,9.52185858 C0.512917893,9.52185858 0.0239767476,9.52185858 0.0239767476,10.2823398 C0.0239767476,10.7893273 0.512917893,11.042821 1.12409432,11.042821 Z M0.757388466,13.957999 L4.42444706,13.957999 C4.66891763,13.957999 5.15785878,14.2114928 5.28009406,13.5777584 C5.28009406,13.0707709 5.15785878,12.6905303 4.66891763,12.5637834 C3.32432948,12.4370366 1.97974133,12.4370366 0.635153179,12.5637834 C0.26844732,12.5637834 -0.0982585388,12.9440241 0.0239767476,13.3242647 C0.146212034,13.7045053 0.390682607,13.957999 0.757388466,13.957999 Z M21.904093,10.5358335 C21.4151519,9.39511171 20.4372696,9.90209919 19.7038579,9.90209919 C18.9704461,9.90209919 18.2370344,10.7893273 17.625858,10.1555929 C17.1369168,9.64860545 16.770211,8.76137736 16.5257404,8.12764301 C16.1590345,7.11366806 15.4256228,6.47993371 14.9366817,5.46595875 C17.0146816,6.35318684 18.2370344,5.46595875 18.8482109,4.45198379 C19.5816226,3.31126197 19.337152,1.66355266 18.3592697,0.776324576 C17.3813874,-0.110903511 15.914564,-0.23765038 14.9366817,0.396083967 C13.5920935,1.28331205 13.347623,2.55078075 14.3255053,4.95897127 C12.8586818,4.45198379 11.636329,3.69150258 10.2917408,3.1845151 C9.68056437,3.05776823 9.19162323,2.42403388 8.58044679,2.67752762 C6.99138807,3.43800884 5.40232935,4.07174319 3.81327063,4.95897127 C2.83538833,5.46595875 2.59091776,6.0996931 3.07985891,6.86017432 C3.44656477,7.49390866 4.30221177,7.7474024 5.03562349,7.36716179 C5.76903521,6.98692119 6.50244693,6.73342745 7.11362336,6.35318684 C8.21374094,5.71945249 9.31385851,5.71945249 10.4139761,6.47993371 C11.1473878,6.98692119 11.0251525,7.24041493 10.5362114,7.87414927 C9.31385851,9.0148711 8.09150565,10.1555929 6.99138807,11.5498085 C6.25797635,12.5637834 6.25797635,13.5777584 7.11362336,14.4649865 C8.21374094,15.6057083 9.31385851,16.6196833 10.4139761,17.6336582 C10.7806819,18.0138988 11.0251525,18.2673926 10.2917408,18.3941394 C9.19162323,18.6476332 8.21374094,18.9011269 7.11362336,19.1546207 C6.38021164,19.2813675 5.64679992,20.0418488 5.76903521,20.80233 C5.89127049,21.5628112 6.86915278,22.0697987 7.72479979,21.9430518 C9.80279966,21.4360643 12.0030348,20.9290768 14.0810347,20.4220894 C15.1811523,20.1685956 15.6700934,19.0278738 15.058917,18.1406457 C14.4477405,17.2534176 13.8365641,16.4929364 13.2253877,15.6057083 C11.8807995,13.5777584 11.8807995,13.5777584 13.5920935,11.8033022 C14.5699758,10.7893273 14.5699758,10.7893273 15.3033875,12.056796 C15.6700934,12.5637834 15.914564,13.3242647 16.770211,13.1975178 C18.3592697,13.0707709 19.9483284,12.6905303 21.4151519,12.1835428 C21.904093,12.056796 22.1485636,11.1695679 21.904093,10.5358335 L21.904093,10.5358335 Z M13.9587994,20.80233 C13.2253877,21.4360643 12.1252701,21.0558237 11.2696231,21.5628112 C11.0251525,21.6895581 10.7806819,21.9430518 10.6584467,22.1965455 C9.92503494,23.3372674 9.19162323,24.6047361 8.45821151,25.8722048 C7.96927036,26.632686 8.21374094,27.1396735 8.70268208,27.6466609 C9.31385851,28.1536484 10.0472702,28.1536484 10.5362114,27.3931672 L14.5699758,21.6895581 C14.8144464,21.0558237 14.4477405,20.9290768 13.9587994,20.80233 Z" id="形状"></path>
                </g>
            </g>
        </g>
    </g>
</svg>