<?xml version="1.0" encoding="UTF-8"?>
<svg width="45px" height="45px" viewBox="0 0 45 45" version="1.1" xmlns="http://www.w3.org/2000/svg" xmlns:xlink="http://www.w3.org/1999/xlink">
    <title>高清直播</title>
    <g id="web" stroke="none" stroke-width="1" fill="none" fill-rule="evenodd">
        <g id="首页" transform="translate(-696.000000, -1627.000000)">
            <g id="高清直播" transform="translate(696.000000, 1627.000000)">
                <circle id="椭圆形备份-5" fill="#65688E" cx="22.5" cy="22.5" r="22.5"></circle>
                <g id="编组" transform="translate(13.000000, 16.000000)" fill="#BEBFD1" fill-rule="nonzero">
                    <path d="M20,9.80638672 L20,2.92682927 C20,2.49434247 19.5147096,2.2403822 19.1576565,2.48428464 L14.171486,5.92406336 C13.8622077,6.13779231 13.8622077,6.59542369 14.171486,6.80663817 L19.1576565,10.2464169 C19.5147096,10.4953483 20,10.2388735 20,9.80638672 L20,9.80638672 Z" id="路径"></path>
                    <path d="M13.2989691,5.89388987 L14.4003017,5.13452351 C14.5008801,5.06663314 14.5612271,4.95096807 14.5612271,4.83027408 L14.5612271,2.11968821 C14.5612271,0.955494091 13.6082474,0 12.4415388,0 L2.11968821,0 C0.955494091,0 0,0.952979633 0,2.11968821 L0,10.6135278 C0,11.7777219 0.952979633,12.733216 2.11968821,12.733216 L12.4390244,12.733216 C13.6032185,12.733216 14.5587126,11.7802364 14.5587126,10.6135278 L14.5587126,7.90294192 C14.5587126,7.78224793 14.4983656,7.66658285 14.3977873,7.59869248 L13.2964546,6.83932613 C12.9670606,6.61051044 12.9670606,6.12270556 13.2989691,5.89388987 L13.2989691,5.89388987 Z" id="路径"></path>
                </g>
            </g>
        </g>
    </g>
</svg>