<?xml version="1.0" encoding="UTF-8"?>
<svg width="22px" height="27px" viewBox="0 0 22 27" version="1.1" xmlns="http://www.w3.org/2000/svg" xmlns:xlink="http://www.w3.org/1999/xlink">
    <title>编组</title>
    <g id="页面-3" stroke="none" stroke-width="1" fill="none" fill-rule="evenodd">
        <g id="pc下载页" transform="translate(-354.000000, -501.000000)" fill="#FFFFFF" fill-rule="nonzero">
            <g id="编组-3" transform="translate(354.000000, 499.000000)">
                <g id="形状" transform="translate(0.000000, 2.000000)">
                    <path d="M18.3757137,14.5297053 C18.3416393,9.50697649 21.1667239,9.37699831 21.2937288,9.29653561 C19.7046187,6.97549641 17.2326696,6.6103196 16.3529284,6.5762777 C14.2496033,6.36274208 12.2485017,7.78940751 11.1798019,7.78940751 C10.1141998,7.78940751 8.46623381,6.57318299 6.72223966,6.60413016 C4.42995608,6.63817206 2.31424028,7.93176457 1.13092633,9.9835632 C-1.25118999,14.1150129 0.520683271,20.2332722 2.84394367,23.5817581 C3.97769472,25.2219591 5.33138111,27.0633168 7.10944975,26.9983278 C8.81936938,26.9302439 9.46678463,25.8904184 11.5360352,25.8904184 C13.6052858,25.8904184 14.184552,26.9983278 15.9966951,26.9611911 C17.8367174,26.9271492 19.0045429,25.2900429 20.129001,23.6436524 C21.4331245,21.7404003 21.9690232,19.9918841 22,19.8990426 C21.9597301,19.8804742 18.4097883,17.8781911 18.3726161,14.5297053 L18.3757137,14.5297053 L18.3757137,14.5297053 Z M11.0001364,6.74958193 C11.0001364,3.02354036 14.0234726,0 17.7561776,0 C17.7561776,3.72913628 14.7297438,6.74958193 11.0001364,6.74958193 Z"></path>
                </g>
            </g>
        </g>
    </g>
</svg>