<?xml version="1.0" encoding="UTF-8"?>
<svg width="45px" height="45px" viewBox="0 0 45 45" version="1.1" xmlns="http://www.w3.org/2000/svg" xmlns:xlink="http://www.w3.org/1999/xlink">
    <title>海量数据</title>
    <g id="web" stroke="none" stroke-width="1" fill="none" fill-rule="evenodd">
        <g id="首页" transform="translate(-802.000000, -1627.000000)">
            <g id="海量数据" transform="translate(802.000000, 1627.000000)">
                <circle id="椭圆形备份-6" fill="#65688E" cx="22.5" cy="22.5" r="22.5"></circle>
                <g id="编组" transform="translate(12.000000, 12.000000)" fill="#BEBFD1" fill-rule="nonzero">
                    <path d="M2.50223466,12.4927677 C2.15908921,12.4927677 1.83380335,12.4277087 1.52619504,12.2975465 C1.21858674,12.1674951 0.952393322,11.9900403 0.727616984,11.765184 C0.502838434,11.5404388 0.325376879,11.2742564 0.19523234,10.9666392 C0.0650855897,10.6590443 2.21101345e-06,10.3337695 2.21101345e-06,9.99063958 C2.21101345e-06,9.64762065 0.0650855681,9.32518485 0.19523234,9.02357858 C0.32537909,8.72186133 0.502840645,8.45863117 0.727616984,8.23386149 C0.952395534,8.00909403 1.21858676,7.83163913 1.52619504,7.70149904 C1.83380335,7.57135894 2.15909144,7.5062778 2.50223466,7.5062778 C2.57319797,7.5062778 2.63828133,7.50931655 2.69746479,7.51521647 C2.75655944,7.52109419 2.81574288,7.52404416 2.87492634,7.52404416 L6.33543205,3.33609684 C6.27624861,3.21782317 6.23776149,3.08768307 6.21999292,2.94576313 C6.20233533,2.80373218 6.19339665,2.65591453 6.19339665,2.50212812 C6.19339665,2.15899821 6.25848001,1.83372345 6.38862678,1.52612845 C6.51877353,1.21853348 6.69623509,0.95235114 6.92101143,0.727583688 C7.14578777,0.502816237 7.4119812,0.325361337 7.71958949,0.195221241 C8.02719779,0.065081146 8.35257467,0 8.6956291,0 C9.03868577,0 9.36406041,0.065081146 9.67166872,0.195221241 C9.97927702,0.325361337 10.2454704,0.502816215 10.4702468,0.727583688 C10.6950253,0.95235114 10.8724869,1.21853348 11.0026314,1.52612845 C11.1327782,1.83372343 11.1978616,2.159087 11.1978616,2.50212812 C11.1978616,2.7860768 11.1534967,3.05518689 11.0647648,3.30950057 C10.976033,3.56390304 10.8547161,3.80340033 10.7009009,4.02825657 L13.7001029,10.7359896 L15.4214171,7.6660729 C15.2912703,7.46494951 15.1848608,7.24313202 15.1020311,7.00061817 C15.0191792,6.75808215 14.9777643,6.50072971 14.9777643,6.22866965 C14.9777643,5.88553974 15.0428477,5.56026498 15.1729944,5.25266998 C15.3031412,4.94507501 15.4806027,4.67889267 15.7053791,4.45412522 C15.9301576,4.22935777 16.1963488,4.05190287 16.5039571,3.92176277 C16.8115654,3.79162268 17.1369423,3.72654153 17.4799967,3.72654153 C17.8230534,3.72654153 18.1484281,3.79162268 18.4560364,3.92176277 C18.7636447,4.05190287 19.0327881,4.22935775 19.2634443,4.45412522 C19.4942116,4.67889267 19.6746231,4.94507501 19.8047699,5.25266998 C19.9349166,5.56026496 20.0000022,5.88562853 20.0000022,6.22866965 C20.0000022,6.58357943 19.9349166,6.91481849 19.8047699,7.22243566 C19.6746231,7.52994184 19.4942116,7.79916294 19.2634443,8.02980811 C19.0327881,8.26045552 18.7636447,8.44094694 18.4560364,8.57100046 C18.1483393,8.70116275 17.8230512,8.7662217 17.4799967,8.7662217 L17.0541104,8.7662217 L15.3682224,11.8362494 C15.6285137,12.0727967 15.8356124,12.3508455 15.9893389,12.6702181 C16.143132,12.9897017 16.2199952,13.3386228 16.2199952,13.7171767 C16.2199952,14.0603066 16.154934,14.3856701 16.0247651,14.6931763 C15.8947071,15.0007935 15.7142068,15.2699036 15.4835505,15.5006598 C15.2528942,15.7313072 14.9867008,15.9117098 14.6849725,16.0418521 C14.3832419,16.1719922 14.055026,16.2370734 13.700103,16.2370734 C13.3451799,16.2370734 13.016853,16.1719922 12.7151225,16.0418521 C12.4135029,15.911712 12.1502394,15.7313072 11.925483,15.5006598 C11.7006157,15.2699014 11.5231542,15.0007935 11.3930984,14.6931763 C11.2629295,14.3856701 11.1978683,14.0603066 11.1978683,13.7171767 C11.1978683,13.3386228 11.2717816,12.9897017 11.4196946,12.6702181 C11.5675212,12.3508455 11.7716678,12.0727945 12.0318725,11.8362494 L8.9795956,5.00425401 C8.86122872,5.0279003 8.7665969,5.03967796 8.69563359,5.03967796 C8.5063034,5.03967796 8.32589188,5.01603167 8.15441905,4.96871909 C7.98283523,4.92140431 7.82010349,4.86222529 7.66639924,4.79126421 L4.63177766,8.62430399 C4.75005575,8.82540518 4.84466538,9.04134495 4.91573967,9.27199014 C4.98670298,9.50263754 5.02212914,9.74222139 5.02212914,9.99063515 C5.02212914,10.3337651 4.95706798,10.6591286 4.82701,10.9666348 C4.69684105,11.274252 4.51645175,11.5404343 4.28568447,11.7651796 C4.05502818,11.9900358 3.78883476,12.1674907 3.48710641,12.297542 C3.18548681,12.4277065 2.85715998,12.4927677 2.50223466,12.4927677 L2.50223466,12.4927677 Z M0,17.5147939 L20,17.5147939 L20,19.9280863 L0,19.9280863 L0,17.5147939 L0,17.5147939 Z" id="形状"></path>
                </g>
            </g>
        </g>
    </g>
</svg>