<?xml version="1.0" encoding="UTF-8"?>
<svg width="45px" height="45px" viewBox="0 0 45 45" version="1.1" xmlns="http://www.w3.org/2000/svg" xmlns:xlink="http://www.w3.org/1999/xlink">
    <title>隐私政策</title>
    <g id="web" stroke="none" stroke-width="1" fill="none" fill-rule="evenodd">
        <g id="首页" transform="translate(-1010.000000, -1626.000000)">
            <g id="隐私政策" transform="translate(1010.000000, 1626.000000)">
                <circle id="椭圆形备份-10" fill="#65688E" cx="22.5" cy="22.5" r="22.5"></circle>
                <g id="编组" transform="translate(15.000000, 13.000000)" fill="#BEBFD1" fill-rule="nonzero">
                    <path d="M15.0216317,17.8833754 L15.0216317,17.8805719 L2.90512689,17.8805719 C2.46636007,17.8805719 2.10935105,17.5133165 2.10935105,17.0619568 C2.10935105,16.6105971 2.46636007,16.2433417 2.90512689,16.2433417 L14.6210186,16.2433417 L14.6210186,16.2405383 C15.3895418,16.1984861 16,15.5452761 16,14.7434819 L15.9945495,1.27277825 C15.9945495,0.571909167 15.4385965,0 14.7572816,0 L8.84619315,0 C8.85709419,0.0560695262 8.86254471,0.112139052 8.86254471,0.168208579 L8.86254471,7.42360527 C8.84346789,7.7628259 8.45920627,7.94505186 8.18668029,7.751612 L6.67143587,6.68348752 C6.52427184,6.5797589 6.3307784,6.5797589 6.18361438,6.68348752 L4.66836995,7.751612 C4.39584398,7.94505186 4.01158235,7.7628259 3.99250554,7.42360527 L3.99250554,0.168208579 C3.99250554,0.109335576 3.99795606,0.0532660499 4.00885709,0 L1.23726793,0 C0.555952989,0 0,0.571909167 0,1.27277825 L0,18.7272218 C0,19.4280908 0.555952989,20 1.23726793,20 L14.7572816,20 C14.7899847,20 14.825413,19.9971965 14.8581162,19.994393 C14.888094,19.9971965 14.9180719,20 14.9480497,20 C15.517629,20 15.9781979,19.5262125 15.9781979,18.940286 C15.9781979,18.3795907 15.5585079,17.9226241 15.0216317,17.8833754 L15.0216317,17.8833754 Z" id="路径"></path>
                </g>
            </g>
        </g>
    </g>
</svg>