<?xml version="1.0" encoding="UTF-8"?>
<svg width="45px" height="45px" viewBox="0 0 45 45" version="1.1" xmlns="http://www.w3.org/2000/svg" xmlns:xlink="http://www.w3.org/1999/xlink">
    <title>用户协议</title>
    <g id="web" stroke="none" stroke-width="1" fill="none" fill-rule="evenodd">
        <g id="首页" transform="translate(-905.000000, -1626.000000)">
            <g id="用户协议" transform="translate(905.000000, 1626.000000)">
                <circle id="椭圆形备份-7" fill="#65688E" cx="22.5" cy="22.5" r="22.5"></circle>
                <g id="编组" transform="translate(14.000000, 14.000000)" fill="#BEBFD1" fill-rule="nonzero">
                    <path d="M17.3017437,10.9787718 L10.6148597,13.7854435 C9.57998484,14.2198635 8.41546626,14.2198635 7.38286581,13.7854435 L0.695981804,10.9787718 C0.366186505,10.8400303 0,11.0833965 0,11.4404852 L0,17.6906748 C0,17.9681577 0.225170584,18.1933283 0.502653525,18.1933283 L17.4973465,18.1933283 C17.7748294,18.1933283 18,17.9681577 18,17.6906748 L18,11.4427597 C17.9977255,11.0833965 17.6338135,10.8400303 17.3017437,10.9787718 Z" id="路径"></path>
                    <path d="M10.6148597,12.6595906 L15.8551933,10.4601971 L15.8551933,0.723275208 C15.8551933,0.322971948 15.5322214,0 15.1319181,0 L2.86353298,0 C2.46322972,0 2.14025777,0.322971948 2.14025777,0.723275208 L2.14025777,10.4601971 L7.38059136,12.6595906 C8.41546626,13.0940106 9.57998484,13.0940106 10.6148597,12.6595906 L10.6148597,12.6595906 Z M7.81501137,3.11372252 C7.81501137,2.98862775 7.91736164,2.88400303 8.04473086,2.88400303 L12.4776346,2.88400303 C12.6027293,2.88400303 12.7073541,2.9863533 12.7073541,3.11372252 L12.7073541,3.6686884 C12.7073541,3.79378317 12.6050038,3.89840788 12.4776346,3.89840788 L8.04473086,3.89840788 C7.91963609,3.89840788 7.81501137,3.79605762 7.81501137,3.6686884 L7.81501137,3.11372252 L7.81501137,3.11372252 Z M5.9772555,2.70432146 C6.3570887,2.70432146 6.6641395,3.01137225 6.6641395,3.39120546 C6.6641395,3.77103867 6.3570887,4.07808946 5.9772555,4.07808946 C5.59742229,4.07808946 5.29037149,3.77103867 5.29037149,3.39120546 C5.29037149,3.0136467 5.59742229,2.70432146 5.9772555,2.70432146 Z M5.29037149,5.68157695 C5.29037149,5.52691433 5.41774071,5.39954511 5.57240334,5.39954511 L12.4253222,5.39954511 C12.5799848,5.39954511 12.7073541,5.52691433 12.7073541,5.68157695 L12.7073541,6.13191812 C12.7073541,6.28658074 12.5799848,6.41394996 12.4253222,6.41394996 L5.57240334,6.41394996 C5.41774071,6.41394996 5.29037149,6.28658074 5.29037149,6.13191812 L5.29037149,5.68157695 Z M5.29037149,8.76118271 L5.29037149,8.31084155 C5.29037149,8.15617892 5.41774071,8.0288097 5.57240334,8.0288097 L12.4253222,8.0288097 C12.5799848,8.0288097 12.7073541,8.15617892 12.7073541,8.31084155 L12.7073541,8.76118271 C12.7073541,8.91584534 12.5799848,9.04321456 12.4253222,9.04321456 L5.57240334,9.04321456 C5.41774071,9.04321456 5.29037149,8.91584534 5.29037149,8.76118271 Z" id="形状"></path>
                </g>
            </g>
        </g>
    </g>
</svg>